<svg width="96" height="96" viewBox="0 0 96 96" fill="none" xmlns="http://www.w3.org/2000/svg">
  <rect width="96" height="96" rx="28" fill="#ECFFF5"/>
  <rect x="16" y="16" width="64" height="64" rx="22" fill="#D9FFE9"/>
  <ellipse cx="48" cy="42" rx="24" ry="28" fill="#7CE8A9"/>
  <ellipse cx="34" cy="42" rx="7" ry="11" fill="#173B2A"/>
  <ellipse cx="62" cy="42" rx="7" ry="11" fill="#173B2A"/>
  <ellipse cx="34" cy="42" rx="2.5" ry="3.5" fill="#F8FFF9"/>
  <ellipse cx="62" cy="42" rx="2.5" ry="3.5" fill="#F8FFF9"/>
  <path d="M38 56C41 59 45 60.5 48 60.5C51 60.5 55 59 58 56" stroke="#173B2A" stroke-width="3.5" stroke-linecap="round"/>
  <ellipse cx="26" cy="51" rx="5" ry="7" fill="#62D98F"/>
  <ellipse cx="70" cy="51" rx="5" ry="7" fill="#62D98F"/>
  <path d="M40 16L35 8" stroke="#173B2A" stroke-width="3" stroke-linecap="round"/>
  <path d="M56 16L61 8" stroke="#173B2A" stroke-width="3" stroke-linecap="round"/>
  <circle cx="34" cy="7" r="3.5" fill="#5EEAD4"/>
  <circle cx="62" cy="7" r="3.5" fill="#5EEAD4"/>
</svg>
