<svg width="96" height="96" viewBox="0 0 96 96" fill="none" xmlns="http://www.w3.org/2000/svg">
  <rect width="96" height="96" rx="28" fill="#E8F7FF"/>
  <rect x="16" y="16" width="64" height="64" rx="22" fill="#D0F0FF"/>
  <rect x="30" y="22" width="36" height="8" rx="4" fill="#6BC8FF"/>
  <rect x="26" y="30" width="44" height="30" rx="14" fill="#8BD7FF"/>
  <circle cx="40" cy="44" r="5" fill="#173B59"/>
  <circle cx="56" cy="44" r="5" fill="#173B59"/>
  <rect x="39" y="42" width="2" height="4" rx="1" fill="#E8F7FF"/>
  <rect x="55" y="42" width="2" height="4" rx="1" fill="#E8F7FF"/>
  <rect x="34" y="53" width="28" height="5" rx="2.5" fill="#173B59"/>
  <rect x="24" y="60" width="48" height="12" rx="6" fill="#3D8FBF"/>
  <rect x="18" y="33" width="6" height="14" rx="3" fill="#6BC8FF"/>
  <rect x="72" y="33" width="6" height="14" rx="3" fill="#6BC8FF"/>
  <rect x="44" y="10" width="8" height="10" rx="4" fill="#173B59"/>
  <circle cx="48" cy="8" r="4" fill="#5EEAD4"/>
</svg>
